<svg width="223" height="87" viewBox="0 0 223 87" fill="none" xmlns="http://www.w3.org/2000/svg">
<g id="Group">
<g id="Group_2">
<path id="Vector" d="M26.5695 86.9532L0 60.746V0L26.5695 26.2072V86.9532Z" fill="#79EFBC"/>
<path id="Vector_2" d="M41.7859 86.9532L15.2164 60.746V0L41.7859 26.2072V86.9532Z" fill="#79EFBC"/>
<path id="Vector_3" d="M68.3552 86.9532L41.7858 60.746V0L68.3552 26.2072V86.9532Z" fill="#79EFBC"/>
<path id="Vector_4" d="M83.5716 86.9532L57.0022 60.746V0L83.5716 26.2072V86.9532Z" fill="#79EFBC"/>
<path id="Vector_5" d="M57.0022 34.8424L48.3669 26.2072H26.5695V60.746H48.3669L57.0022 52.1108V34.8424Z" fill="#0D0B33"/>
</g>
<g id="Group_3">
<path id="Vector_6" d="M117.736 26.2449H123.398V60.7104H118.967L102.718 37.3237V60.7104H97.0564V26.2449H101.487L117.736 49.6316V26.2449Z" fill="#79EFBC"/>
<path id="Vector_7" d="M138.413 55.2935H153.675V60.7104H132.751V26.2449H153.43V31.6618H138.413V40.6237H152.199V45.9903H138.413V55.2956V55.2935Z" fill="#79EFBC"/>
<path id="Vector_8" d="M174.847 26.2449C179.573 26.2449 183.511 27.9179 186.614 31.2179C189.766 34.5158 191.34 38.6031 191.34 43.4776C191.34 48.3522 189.766 52.3893 186.614 55.7374C183.513 59.0353 179.575 60.7104 174.847 60.7104H161.307V26.2449H174.847ZM174.847 55.2935C178.096 55.2935 180.756 54.1607 182.774 51.9454C184.843 49.73 185.875 46.8739 185.875 43.4776C185.875 40.0813 184.841 37.2253 182.774 35.0099C180.756 32.7946 178.096 31.6618 174.847 31.6618H166.969V55.2956H174.847V55.2935Z" fill="#79EFBC"/>
<path id="Vector_9" d="M223 26.2449L210.987 47.0226V60.7104H205.325V47.0226L193.313 26.2449H199.762L208.182 41.5073L216.551 26.2449H223Z" fill="#79EFBC"/>
</g>
</g>
</svg>
