<svg version="1.2" xmlns="http://www.w3.org/2000/svg" viewBox="0 0 42 41" width="42" height="41">
	<title>avail</title>
	<defs>
		<clipPath clipPathUnits="userSpaceOnUse" id="cp1">
			<path d="m23.77 30.58l12.19 5.78c0.63 0.29 1.38 0.03 1.65-0.61 2.85-6.59 4.62-15.87 1.46-23.01-2.98-6.72-10.35-8.55-12.96-8.17l-4.78 2.59c1.81 0.34 5.46 2.6 5.58 8.97 0.1 5.28-2.02 9.93-3.65 12.46-0.44 0.69-0.22 1.64 0.51 1.99z"/>
		</clipPath>
		<filter x="-50%" y="-50%" width="200%" height="200%" id="f1"> <feGaussianBlur stdDeviation="2.3"/> </filter>
		<linearGradient id="g1" x2="1" gradientUnits="userSpaceOnUse" gradientTransform="matrix(-0.198,24.974,-21.239,-0.169,29.827,8.308)">
			<stop offset="0" stop-color="#13497e"/>
			<stop offset=".64" stop-color="#2b80d7"/>
		</linearGradient>
		<filter x="-50%" y="-50%" width="200%" height="200%" id="f2"> <feGaussianBlur stdDeviation=".1"/> </filter>
		<linearGradient id="g2" x2="1" gradientUnits="userSpaceOnUse" gradientTransform="matrix(.01,25.947,-14.186,.005,37.483,10.144)">
			<stop offset="0" stop-color="#e2c7fe"/>
			<stop offset=".451" stop-color="#77b8fd"/>
		</linearGradient>
		<filter x="-50%" y="-50%" width="200%" height="200%" id="f3"> <feGaussianBlur stdDeviation="2.2"/> </filter>
		<filter x="-50%" y="-50%" width="200%" height="200%" id="f4"> <feGaussianBlur stdDeviation=".3"/> </filter>
		<linearGradient id="g3" x2="1" gradientUnits="userSpaceOnUse" gradientTransform="matrix(-13.389,22.527,-21.522,-12.791,27.107,16.811)">
			<stop offset="0" stop-color="#269ebf"/>
			<stop offset="1" stop-color="#3ebadd"/>
		</linearGradient>
		<clipPath clipPathUnits="userSpaceOnUse" id="cp2">
			<path d="m32.75 25.58l-11.19-4.05c-0.34-0.12-0.72 0.08-0.83 0.43-0.78 2.56-2.82 7.17-6.78 8.9-5.21 2.27-6.92-2.81-4.63 3.62 2.29 6.42 9.87 8.27 16.79 4.33 5.02-2.85 6.96-8.68 7.43-11.97 0.08-0.55-0.26-1.07-0.79-1.26z"/>
		</clipPath>
		<filter x="-50%" y="-50%" width="200%" height="200%" id="f5"> <feGaussianBlur stdDeviation="1.6"/> </filter>
		<linearGradient id="g4" x2="1" gradientUnits="userSpaceOnUse" gradientTransform="matrix(-11.012,15.713,-14.86,-10.414,24.393,22.661)">
			<stop offset="0" stop-color="#33b6d2"/>
			<stop offset=".143" stop-color="#5bd8ff"/>
			<stop offset="1" stop-color="#228aa7"/>
		</linearGradient>
		<linearGradient id="g5" x2="1" gradientUnits="userSpaceOnUse" gradientTransform="matrix(-9.448,15.716,-9.867,-5.932,27.993,24.39)">
			<stop offset=".635" stop-color="#68deff"/>
			<stop offset="1" stop-color="#f3c8cb"/>
		</linearGradient>
		<clipPath clipPathUnits="userSpaceOnUse" id="cp3">
			<path d="m15.85 19.97c-3.39 6.38-6.67 19.43 3.7 20.88-4.06 0.31-13.27-1.77-17.45-11.66-5.24-12.36 5.03-27.21 16.49-28.56 11.2-1.31 16.98 4.8 20.31 11.73q0.12 0.25 0.22 0.48-0.11-0.24-0.22-0.48c-1.28-2.47-4.93-6.07-11.09-3.75-4.46 1.67-9.35 6.45-11.96 11.36z"/>
		</clipPath>
		<filter x="-50%" y="-50%" width="200%" height="200%" id="f6"> <feGaussianBlur stdDeviation="2.5"/> </filter>
		<linearGradient id="g6" x2="1" gradientUnits="userSpaceOnUse" gradientTransform="matrix(10.412,25.763,-17.847,7.213,2.187,13.772)">
			<stop offset=".661" stop-color="#88fff8"/>
			<stop offset="1" stop-color="#176781"/>
		</linearGradient>
		<linearGradient id="g7" x2="1" gradientUnits="userSpaceOnUse" gradientTransform="matrix(28.924,-11.99,7.158,17.268,7.718,15.361)">
			<stop offset=".732" stop-color="#4d89fd"/>
			<stop offset="1" stop-color="#033883"/>
		</linearGradient>
		<clipPath clipPathUnits="userSpaceOnUse" id="cp4">
			<path d="m1.7 19.19l18.52 19.1-6.7 6.5-18.53-19.09z"/>
		</clipPath>
		<clipPath clipPathUnits="userSpaceOnUse" id="cp5">
			<path d="m7.51-2.29l31.29 4.65-1.56 10.51-31.29-4.65z"/>
		</clipPath>
		<linearGradient id="g8" x2="1" gradientUnits="userSpaceOnUse" gradientTransform="matrix(-19.464,32.966,-21.56,-12.73,34.146,6.961)">
			<stop offset="0" stop-color="#efc7fe"/>
			<stop offset=".286" stop-color="#2cbbf9"/>
			<stop offset=".656" stop-color="#2cbbf9"/>
			<stop offset="1" stop-color="#fdc8c8"/>
		</linearGradient>
		<clipPath clipPathUnits="userSpaceOnUse" id="cp6">
			<path d="m16.41-5.47l29.28 17.72-21.14 34.94-29.28-17.72z"/>
		</clipPath>
		<linearGradient id="g9" x2="1" gradientUnits="userSpaceOnUse" gradientTransform="matrix(-19.464,32.966,-21.56,-12.73,34.145,6.96)">
			<stop offset="0" stop-color="#efc7fe"/>
			<stop offset=".318" stop-color="#2cbbf9"/>
			<stop offset=".661" stop-color="#2cbbf9"/>
			<stop offset="1" stop-color="#fdc8c8"/>
		</linearGradient>
	</defs>
	<style>
		.s0 { fill: #2b80d7 } 
		.s1 { filter: url(#f1);fill: url(#g1) } 
		.s2 { filter: url(#f2);fill: url(#g2) } 
		.s3 { filter: url(#f3);fill: #13497e } 
		.s4 { filter: url(#f4);fill: #2b80d7 } 
		.s5 { fill: url(#g3) } 
		.s6 { filter: url(#f5);fill: url(#g4) } 
		.s7 { filter: url(#f4);fill: #3ebadd } 
		.s8 { filter: url(#f2);fill: url(#g5) } 
		.s9 { fill: #2cbbf9 } 
		.s10 { filter: url(#f6);fill: url(#g6) } 
		.s11 { filter: url(#f6);fill: url(#g7) } 
		.s12 { filter: url(#f4);fill: #56e5ff } 
		.s13 { filter: url(#f4);fill: #fdc7c7 } 
		.s14 { fill: #fdc7c7 } 
		.s15 { filter: url(#f4);fill: #efc7fd } 
		.s16 { fill: #efc7fd } 
		.s17 { filter: url(#f2);fill: url(#g8) } 
		.s18 { fill: url(#g9) } 
	</style>
	<path class="s0" d="m23.8 30.6l12.2 5.8c0.6 0.3 1.3 0 1.6-0.6 2.9-6.6 4.6-15.9 1.5-23.1-3-6.7-10.4-8.5-13-8.1l-4.8 2.6c1.8 0.3 5.5 2.6 5.6 8.9 0.1 5.3-2 10-3.6 12.5-0.5 0.7-0.3 1.6 0.5 2z"/>
	<g id="Clip-Path" clip-path="url(#cp1)">
		<g>
			<g>
				<path class="s1" d="m27.5 32.6c6.4-4.7 15-23.5 10.7-27.3-1.6-1.3-16.1-1-17.4-2l1.1 1.5c0 0 4.2 5.3 4 13.7-0.2 5.1-2 10.4-3.2 13-0.2 0.4-8.7-3.8-8.8-3.4-0.5 0.9 7.8 5 7.8 5l5.4-0.4q0.2 0 0.4-0.1z"/>
			</g>
			<g>
				<path class="s2" d="m37.8 37.6c6.2-4.7 12.1-18.8 7.7-26.6-1-1.8-8.7-7.1-10-8.1l-0.4 5.2c0 0 4.7 4.6 4.5 12.9-0.3 6.6-2.1 11.6-2.9 13.4-0.2 0.5-0.7 0.7-1.2 0.5-2.1-0.9-7.7-3.2-7.5-3.6-0.5 0.9 7.8 5.8 7.8 5.8l1.1 0.6c0.2 0.1 0.6 0.1 0.9-0.1z"/>
			</g>
			<g style="opacity: .8">
				<path fill-rule="evenodd" class="s3" d="m24.5 20.5l10.3 3.3c1.3 0.5 2 1.9 1.6 3.2l-2.6 7.9c-0.4 1.3-1.8 2-3.2 1.6l-10.3-3.4c-1.3-0.5-2-1.9-1.6-3.2l2.6-7.8c0.5-1.4 1.9-2.1 3.2-1.6z"/>
			</g>
			<g style="opacity: .7">
				<path class="s4" d="m23.3 27.5c5.1-3.6 5.9-14.9 1.5-19.3-1.1-1.1-2.8-2.3-3.9-3.1l0.9 1.2c0 0 3.6 3.9 3.3 10-0.1 3.8-1.7 7.7-2.6 9.6-0.2 0.3-7.4-2.8-7.5-2.5-0.4 0.7 6.6 3.7 6.6 3.7l0.9 0.4c0.3 0.2 0.6 0.1 0.8 0z"/>
			</g>
		</g>
	</g>
	<path class="s5" d="m32.8 25.6l-11.2-4.1c-0.4-0.1-0.8 0.1-0.9 0.5-0.7 2.5-2.8 7.1-6.7 8.9-5.3 2.2-7-2.9-4.7 3.6 2.3 6.4 9.9 8.2 16.8 4.3 5-2.8 7-8.7 7.4-12 0.1-0.5-0.2-1-0.7-1.2z"/>
	<g id="Clip-Path" clip-path="url(#cp2)">
		<g>
			<g>
				<path class="s6" d="m15.3 42.6c10.9 0 15.4-19.6 14.1-22.9 0-0.2-0.2-0.3-0.4-0.4l-20.2-6.3 12.3 5.1c0.2 0 0.2 0.2 0.2 0.3-0.2 1.2-1.4 6.1-4.3 9.3-3.4 3.6-10.3 4.4-13.1 3.7-1.5 0-2.4-0.5-2.4-0.5 3.5 2.3 8.4 11.7 13.8 11.7z"/>
			</g>
			<g style="opacity: .4">
				<path class="s7" d="m16.5 30.2c4.5-3 7.8-14.3 6.9-17.4-0.1-0.3-0.4-0.5-0.7-0.5l-11.8-0.5 10.3 5c0.1 0.1 0.2 0.2 0.2 0.4-0.2 1.1-1.2 6.1-3.7 9.3-2.8 3.6-8.6 4.4-10.9 3.7-1.3 0-2 0.5-2 0.5 2.9 2.3 7.8 2.2 11.7-0.5z"/>
			</g>
			<g>
				<path class="s8" d="m26.5 39.8c5.3-3 9.9-15.2 8.8-18.2 0-0.3-0.3-0.4-0.5-0.4l-14.1-1.7-0.3 2 11.1 4.4c0.4 0.1 0.6 0.5 0.6 0.9-0.2 1.4-1 5-4.2 8.6-4.1 4.8-10.1 4.5-13 3.9-1.5 0-1.9 0-1.9 0 3.3 2.3 8.8 3.1 13.5 0.5z"/>
			</g>
		</g>
	</g>
	<path class="s9" d="m15.8 20c-3.3 6.3-6.6 19.4 3.7 20.8-4 0.4-13.2-1.7-17.4-11.6-5.2-12.4 5-27.2 16.5-28.6 11.2-1.3 17 4.8 20.3 11.8q0.1 0.2 0.2 0.4-0.1-0.2-0.2-0.4c-1.3-2.5-4.9-6.1-11.1-3.8-4.5 1.7-9.3 6.5-12 11.4z"/>
	<g id="Clip-Path" clip-path="url(#cp3)">
		<g>
			<g>
				<path class="s10" d="m-8 28.9c4.2 9.9 23.2 12.9 27.2 12.6 0.3-2-5.6-6.1-5.4-10.8 0 0-7.4 0.3-8.5-10.7-1.1-11 5.2-16.6 5.2-16.6-7.6 3.7-20.8 20.2-18.5 25.5z"/>
				<path class="s11" d="m39.1 12.8c19.6-15.7-13.5-19.4-25-18-4.7 0.5-17.3 13.2-12.3 18.6 0 0 5.1-5.7 12.3-6.7 7.3-1.1 10.7 4.2 10.7 4.2 0.8-0.6 3.2-0.7 4-1.1 6.6-2.4 10 2.4 10.3 3z"/>
			</g>
			<g>
				<path class="s12" d="m2.6 30.5c-11.7-3.7-6.1-28.7 5.6-32.3 10.6-3.2 11.4 1.8 13.3 2.1q0.3 0 0.3 0-0.1 0.1-0.3 0c-1.4 0.1-6.5 0.5-11.3 4.7-7.3 6.2-10.3 16.2-7.6 25.5z"/>
			</g>
			<g>
				<path class="s13" d="m21.4 40.8c-3.2 3.7-16.5-0.8-20.7-10.6-0.7-1.8 0.1-7.3 0.1-9.4q-0.1-0.3-0.1-0.3 0 0.2 0.1 0.3c0 1.2 0.5 6.4 3.8 11.2 3.7 5.4 11.4 7.5 11.4 7.5 1 0.7 3.8 1.1 5.4 1.3z"/>
			</g>
			<g id="Clip-Path" clip-path="url(#cp4)">
				<g>
					<path class="s14" d="m21.4 40.8c-3.2 3.7-16.5-0.8-20.7-10.6-0.7-1.8 0.1-7.3 0.1-9.4q-0.1-0.3-0.1-0.3 0 0.2 0.1 0.3c0 1.2 0.5 6.4 3.8 11.2 3.7 5.4 11.4 7.5 11.4 7.5 1 0.7 3.8 1.1 5.4 1.3z"/>
				</g>
			</g>
			<g>
				<path class="s15" d="m39.9 13.4c0.9-6.2-10.2-15.9-21.6-14.5-4.2 0.5-7.8 4.5-11 7.7 0 0 7.2-6.3 15.9-5.1 8.7 1.2 12.6 7.7 12.6 7.7 1.8 1 2.6 4.3 4.1 4.2z"/>
			</g>
			<g id="Clip-Path" clip-path="url(#cp5)">
				<g>
					<path class="s16" d="m39.9 13.4c0.9-6.2-10.2-15.9-21.6-14.5-4.2 0.5-7.8 4.5-11 7.7 0 0 7.2-6.3 15.9-5.1 8.7 1.2 12.6 7.7 12.6 7.7 1.8 1 2.6 4.3 4.1 4.2z"/>
				</g>
			</g>
			<g>
				<path class="s17" d="m26.7 7c-11.8 3.8-22.2 25.4-12.1 33.5 10.2 8.1 22-7.3 27.9-19.8-2.9-8.4-4.1-17.4-15.8-13.7z"/>
			</g>
			<g id="Clip-Path" clip-path="url(#cp6)">
				<g>
					<path class="s18" d="m26.7 7c-11.8 3.8-22.2 25.4-12.1 33.5 10.2 8.1 22-7.3 27.9-19.8-2.9-8.4-4.1-17.4-15.8-13.7z"/>
				</g>
			</g>
		</g>
	</g>
</svg>