<svg width="24" height="24" viewBox="0 0 24 24" fill="none" xmlns="http://www.w3.org/2000/svg">
    <path d="M1.27708 14.9661C0.750473 14.4291 0.397307 13.809 0.217591 13.1059C0.0420532 12.3984 0.0420531 11.691 0.217591 10.9836C0.397307 10.2719 0.748378 9.64965 1.27081 9.11695C1.8016 8.57572 2.4139 8.21561 3.10769 8.03662C3.80148 7.85763 4.49527 7.85763 5.18906 8.03662C5.88285 8.21561 6.49305 8.57359 7.01966 9.11056L8.32366 10.4402L10.2546 8.47131L8.95056 7.14167C8.42395 6.6047 8.07078 5.98462 7.89106 5.28145C7.71553 4.57401 7.71345 3.86871 7.88481 3.16554C8.06035 2.4581 8.41352 1.83377 8.94431 1.29254C9.47092 0.755568 10.0811 0.397593 10.7749 0.218603C11.4687 0.0396137 12.1604 0.0417387 12.85 0.22499C13.5438 0.403979 14.154 0.761966 14.6806 1.29893C15.2072 1.8359 15.5583 2.4581 15.7338 3.16554C15.9136 3.86871 15.9156 4.57401 15.7401 5.28145C15.5687 5.99315 15.2198 6.61748 14.6931 7.15445L13.3954 8.4777L15.3201 10.4402L16.6178 9.11695C17.1444 8.57998 17.7525 8.21987 18.4421 8.03662C19.1359 7.85763 19.8276 7.85975 20.5172 8.043C21.211 8.22199 21.8233 8.58212 22.3541 9.12335C22.8807 9.66031 23.2318 10.2825 23.4073 10.99C23.587 11.6931 23.587 12.3963 23.4073 13.0995C23.2318 13.8069 22.8807 14.4291 22.3541 14.9661C21.8233 15.5073 21.211 15.8674 20.5172 16.0464C19.8276 16.2211 19.1359 16.219 18.4421 16.04C17.7567 15.861 17.1507 15.503 16.6241 14.9661L15.3263 13.6428L13.3954 15.6117L14.6931 16.935C15.2198 17.4719 15.5687 18.092 15.7401 18.7952C15.9156 19.5026 15.9156 20.2101 15.7401 20.9175C15.5646 21.6249 15.2114 22.2492 14.6806 22.7905C14.1582 23.3232 13.548 23.6812 12.85 23.8644C12.1562 24.0434 11.4624 24.0434 10.7686 23.8644C10.0832 23.6854 9.47717 23.3274 8.95056 22.7905C8.41977 22.2492 8.06453 21.627 7.88481 20.9239C7.70928 20.2164 7.70928 19.509 7.88481 18.8016C8.06871 18.0941 8.42187 17.4741 8.94431 16.9414L10.2546 15.6053L8.32993 13.6428L7.01966 14.9789C6.49723 15.5116 5.88494 15.8674 5.18279 16.0464C4.489 16.2254 3.79521 16.2254 3.10142 16.0464C2.41181 15.8632 1.8037 15.503 1.27708 14.9661ZM2.84438 13.368C3.08261 13.6109 3.35845 13.7728 3.67191 13.8538C3.98955 13.939 4.3051 13.9411 4.61856 13.8602C4.93202 13.7792 5.20787 13.6173 5.4461 13.3744L6.75635 12.0383L5.45236 10.7087C5.21413 10.4658 4.9362 10.306 4.61856 10.2292C4.3051 10.1483 3.99165 10.1483 3.67819 10.2292C3.36473 10.3102 3.08679 10.4743 2.84438 10.7215C2.60615 10.9644 2.44524 11.2435 2.36166 11.5589C2.28225 11.8785 2.28225 12.1981 2.36166 12.5178C2.44524 12.8416 2.60615 13.125 2.84438 13.368ZM10.5179 5.54354L11.8219 6.87318L13.1196 5.54994C13.362 5.30276 13.5208 5.02149 13.5961 4.70613C13.6755 4.38651 13.6734 4.06475 13.5898 3.74086C13.5104 3.42124 13.3515 3.13996 13.1133 2.89705C12.8751 2.65414 12.5992 2.49219 12.2858 2.41122C11.9723 2.33025 11.6589 2.33025 11.3454 2.41122C11.0361 2.48793 10.7603 2.64987 10.5179 2.89705C10.2796 3.13996 10.1166 3.42124 10.0289 3.74086C9.94947 4.06048 9.94947 4.38011 10.0289 4.69973C10.1166 5.01936 10.2796 5.30063 10.5179 5.54354ZM16.5265 12.0447L17.8242 13.368C18.0624 13.6109 18.3362 13.7749 18.6455 13.8602C18.9589 13.9412 19.6375 13.939 19.9467 13.8538C20.2602 13.7728 20.5381 13.6087 20.7805 13.3616C21.0229 13.1144 21.1818 12.8331 21.257 12.5178C21.3406 12.2024 21.3427 11.8849 21.2633 11.5653C21.1839 11.2456 21.025 10.9644 20.7868 10.7215C20.5444 10.4743 20.2665 10.3102 19.953 10.2292C19.6395 10.1483 18.9589 10.1483 18.6455 10.2292C18.3404 10.3102 18.0666 10.4743 17.8242 10.7215L16.5265 12.0447ZM10.5179 21.1924C10.7561 21.4353 11.0319 21.5972 11.3454 21.6782C11.6589 21.7592 11.9702 21.757 12.2795 21.6718C12.593 21.5908 12.8688 21.4289 13.107 21.186C13.3494 20.9388 13.5104 20.6554 13.5898 20.3358C13.6734 20.0204 13.6755 19.7029 13.5961 19.3833C13.5208 19.0594 13.3641 18.776 13.1259 18.5331L11.8281 17.2098L10.5179 18.5459C10.2796 18.7888 10.1187 19.0679 10.0351 19.3833C9.95572 19.7029 9.95572 20.0225 10.0351 20.3422C10.1145 20.6618 10.2755 20.9452 10.5179 21.1924ZM9.89722 12.0447L11.8219 14.0072L13.7528 12.0383L11.8281 10.0758L9.89722 12.0447Z"
          fill="#F1E1D4"/>
</svg>
