<svg version="1.2" xmlns="http://www.w3.org/2000/svg" viewBox="0 0 36 37" width="36" height="37">
	<title>hedge</title>
	<style>
		.s0 { fill: #009647 } 
		.s1 { fill: #00d665 } 
		.s2 { fill: #00c15b } 
	</style>
	<path class="s0" d="m5.5 11.3v14.4l-3.1 1.8v-18z"/>
	<path class="s1" d="m8.6 5.9v25.2l-3.1-5.4v-14.4z"/>
	<path class="s2" d="m8.6 5.9l-3.1 5.4-3.1-1.8 3.1-1.8z"/>
	<path class="s2" d="m8.6 31.1l-3.1-1.8-3.1-1.8 3.1-1.8z"/>
	<path class="s2" d="m24.3 17h-12.6l1.3-1.4 5-5 5 5z"/>
	<path class="s0" d="m18 0.5v10.1l-5 5-1.3 1.4v-12.8z"/>
	<path class="s1" d="m24.3 4.2v12.8l-1.3-1.4-5-5v-10.1z"/>
	<path class="s1" d="m30.5 11.3v14.4l3.1 1.8v-18z"/>
	<path class="s0" d="m27.4 5.9v25.2l3.1-5.4v-14.4z"/>
	<path class="s2" d="m27.4 5.9l3.1 5.4 3.1-1.8-3.1-1.8z"/>
	<path class="s2" d="m27.4 31.1l3.1-1.8 3.1-1.8-3.1-1.8z"/>
	<path class="s2" d="m11.7 20h12.6l-1.3 1.4-5 5-5-5z"/>
	<path class="s1" d="m18 36.5v-10.1l5-5 1.3-1.4v12.8z"/>
	<path class="s0" d="m11.7 32.8v-12.8l1.3 1.4 5 5v10.1z"/>
</svg>