<svg version="1.2" xmlns="http://www.w3.org/2000/svg" viewBox="0 0 28 28" width="28" height="28">
	<title>initia</title>
	<style>
		.s0 { fill: #ffffff } 
		.s1 { fill: #000000 } 
	</style>
	<g>
		<g>
			<path fill-rule="evenodd" class="s0" d="m14.2 28c-7.9 0-14.2-6.3-14.2-14 0-7.7 6.3-14 14.2-14 7.8 0 14.2 6.3 14.2 14 0 7.7-6.4 14-14.2 14z"/>
			<path class="s1" d="m15.3 11c0-1.2 0.9-2.2 2-2.4v-2.4c-1.2 0.1-2.3 0.7-3.1 1.6l-0.1 0.1-0.1-0.1c-0.8-0.9-1.9-1.5-3.2-1.6v2.4c1.2 0.2 2.1 1.2 2.1 2.4v6.1c0 1.2-0.9 2.3-2.1 2.5v2.4c1.3-0.2 2.4-0.7 3.2-1.6l0.1-0.1 0.1 0.1c0.8 0.9 1.9 1.4 3.1 1.6v-2.4c-1.1-0.2-2-1.3-2-2.5z"/>
		</g>
	</g>
</svg>