<svg id="eb410cdf-ce8d-486b-8b13-dcd47b2e52d6" data-name="Desing" xmlns="http://www.w3.org/2000/svg" viewBox="0 0 800 600"><defs><style>.aaa2bbf0-4da5-4d86-a30c-75e1a4ceee21{fill:#ecebec;}.ba99994d-f65e-4491-b39a-745de11af6dc{fill:#ff5050;}</style></defs><title>Redbelly</title><path class="aaa2bbf0-4da5-4d86-a30c-75e1a4ceee21" d="M575,110.31,405,12.25a10,10,0,0,0-10,0L225,110.31a10,10,0,0,0-5,8.66V315.09a10,10,0,0,0,5,8.67l170,98.05a10,10,0,0,0,10,0l170-98.05a10,10,0,0,0,5-8.67V119A10,10,0,0,0,575,110.31ZM400,32.47l157.17,90.66a256.33,256.33,0,0,0-65.42,53.24c-35.55-41.92-84.93-83.29-152-109.14ZM527.26,245a11.31,11.31,0,0,1-10.35-6.77A11.18,11.18,0,1,1,538.44,234a11,11,0,0,1-.84,4.22A11.29,11.29,0,0,1,527.26,245Zm0-33.58a22.28,22.28,0,0,0-7.86,1.49c-6.41-9.46-13.35-19.09-21.19-28.8a248.72,248.72,0,0,1,58.1-48.88,543.6,543.6,0,0,0-28.26,76.27C527.78,211.48,527.53,211.41,527.26,211.41ZM485.15,184c-18.06,21.74-32.54,45.5-44.16,69.29-5.61-81.4-68.18-145.16-101.77-175.58C403.6,103.2,451,143.43,485.15,184ZM434,288.69a11.27,11.27,0,0,1-10.34-6.76,11,11,0,0,1-.84-4.23,11.23,11.23,0,1,1,11.18,11Zm-3.08-33.26a23,23,0,0,0-5.62,1.43,396.27,396.27,0,0,0-83.88-84.42,22.33,22.33,0,0,0,3.1-11.23,22.56,22.56,0,0,0-17.64-22V80.09C357.76,107.43,425.88,172.44,430.91,255.43Zm-98.66-90a11.29,11.29,0,0,1-20.69,0,10.94,10.94,0,0,1-.84-4.21,11.19,11.19,0,0,1,22.37,0A11,11,0,0,1,332.25,165.43Zm-15.39-85v58.8a22.56,22.56,0,0,0-13.16,8.69,365.5,365.5,0,0,0-57.85-26.53ZM240,139.14c14.94,22.13,44.31,69.37,62.09,122.19-.19.13-.41.23-.6.36A372.59,372.59,0,0,0,240,218.43Zm85.42,141.2a11.13,11.13,0,0,1-.84,4.21,11.3,11.3,0,0,1-20.7,0,11.18,11.18,0,1,1,21.54-4.21Zm-9.1,73-76.32-44V230a358.68,358.68,0,0,1,54.62,39.34,22.34,22.34,0,0,0,18.23,33.49C316,319.78,317.56,336.82,316.34,353.34Zm9.59,5.53c2-18.9.58-38.39-2.93-57.71a22,22,0,0,0,3.06-1.65A428.74,428.74,0,0,1,393.7,398Zm73.19,27.68a437.64,437.64,0,0,0-65.95-93.91,22.53,22.53,0,0,0-18.92-34.89,23.37,23.37,0,0,0-2.52.25c-18.31-54.7-48.56-102.91-63.81-125.2a357.36,357.36,0,0,1,51.79,24.31,23.17,23.17,0,0,0-.41,4.1,22.6,22.6,0,0,0,35.38,18.62,385.58,385.58,0,0,1,82.53,82.87,22.33,22.33,0,0,0,5.46,34.44A526.72,526.72,0,0,0,399.12,386.55Zm8.41,10.7A514.9,514.9,0,0,1,432.1,300.1c.63,0,1.24.19,1.89.19a22.47,22.47,0,0,0,7.18-1.27,430.9,430.9,0,0,1,30.08,61.48ZM480,355.44a443.28,443.28,0,0,0-30.3-61.55,22.38,22.38,0,0,0-1.11-33.28c11.28-23.58,25.3-47.19,43-68.76,7.14,8.91,13.53,17.76,19.44,26.45a22.46,22.46,0,0,0,6.51,36,444,444,0,0,0-8.93,84.61Zm38.7-22.33a436.84,436.84,0,0,1,8.66-76.54,22.35,22.35,0,0,0,6.41-1.06,416.14,416.14,0,0,1,25,54.49Zm41.26-47c-4.44-10.21-10.32-22.36-17.52-35.54a22.37,22.37,0,0,0-4.8-36.55A537.17,537.17,0,0,1,560,151.53Z"/><path class="ba99994d-f65e-4491-b39a-745de11af6dc" d="M74.1,572.61,82.48,589H64.15l-8.37-16.35L47,555.47l-.39-.78a16.23,16.23,0,0,0-13.88-7.85H16.37V589H0V497.39H57.87a24.56,24.56,0,0,1,17.41,7.19,25.06,25.06,0,0,1,7.2,17.53,24.78,24.78,0,0,1-14.4,22.5,22,22,0,0,1-7.07,2ZM57.87,530.48a7.64,7.64,0,0,0,3.4-.78,8.3,8.3,0,0,0,5-7.59,8.58,8.58,0,0,0-2.49-6,8.24,8.24,0,0,0-5.89-2.36H16.37v16.88Z"/><path class="aaa2bbf0-4da5-4d86-a30c-75e1a4ceee21" d="M421.26,559.66a29.21,29.21,0,0,1-29.2,29.17H329.61V497.26h57.74A24.8,24.8,0,0,1,412.09,522a24.32,24.32,0,0,1-3.92,13.35A29.17,29.17,0,0,1,421.26,559.66ZM346,530.35h41.51a8.37,8.37,0,1,0,0-16.74H346Zm46.09,42a12.82,12.82,0,1,0,0-25.63H346v25.77h46.09Z"/><path class="aaa2bbf0-4da5-4d86-a30c-75e1a4ceee21" d="M618.43,572.61V589H577a28.53,28.53,0,0,1-12.83-3,29.05,29.05,0,0,1-13.22-13.34,28.36,28.36,0,0,1-3-12.82v-62.4h16.36v64a13.07,13.07,0,0,0,11.13,11.12Z"/><path class="aaa2bbf0-4da5-4d86-a30c-75e1a4ceee21" d="M711.84,572.61V589H670.39a28.53,28.53,0,0,1-12.83-3,29,29,0,0,1-13.22-13.34,28.37,28.37,0,0,1-3-12.82v-62.4h16.37v64a13.06,13.06,0,0,0,11.13,11.12Z"/><path class="aaa2bbf0-4da5-4d86-a30c-75e1a4ceee21" d="M703.33,588.83h.26l-.26.26ZM800,497.13,764.52,543l-2,2.49V588.7H746.19V545.79L744,543l-35.48-45.91h20.69l25.14,32.57,25.13-32.57Z"/><path class="ba99994d-f65e-4491-b39a-745de11af6dc" d="M185.86,513.74V497.39H110.71V564.1a24.69,24.69,0,0,0,24.61,24.73h50.54V572.48H135.32A8.43,8.43,0,0,1,127,564.1l.13-17.26h58.78V530.48H127.08V513.74Z"/><path class="aaa2bbf0-4da5-4d86-a30c-75e1a4ceee21" d="M520.34,513.74V497.39H445.19V564.1a24.69,24.69,0,0,0,24.61,24.73h50.54V572.48H469.8a8.44,8.44,0,0,1-8.38-8.38l.14-17.26h58.78V530.48H461.56V513.74Z"/><path class="ba99994d-f65e-4491-b39a-745de11af6dc" d="M260.74,497.39l.13-.13H215.05v91.57h45.82a45,45,0,0,0,32.21-13.48c.92-.91,1.83-1.83,2.62-2.74a45.65,45.65,0,0,0-35-75.22Zm0,75.22-29.46-.09V513.74h29.46a29.44,29.44,0,1,1,0,58.87Z"/></svg>