<svg version="1.2" xmlns="http://www.w3.org/2000/svg" viewBox="0 0 170 182" width="170" height="182">
	<title>union</title>
	<style>
		.s0 { fill: #ffffff } 
	</style>
	<path fill-rule="evenodd" class="s0" d="m121 121c0 16-6.4 31.4-17.7 42.8-11.4 11.3-26.8 17.7-42.8 17.7-16 0-31.4-6.4-42.8-17.7-11.3-11.4-17.7-26.8-17.7-42.8h29.6c0.1 4 0.9 8 2.5 11.7 1.6 3.7 3.9 7 6.8 9.8 2.8 2.8 6.2 5.1 10 6.6 3.7 1.5 7.7 2.2 11.7 2.2 4 0 8-0.8 11.6-2.3 3.7-1.5 7.1-3.7 10-6.5 2.8-2.8 5.1-6.1 6.7-9.8 1.6-3.7 2.4-7.6 2.5-11.6h29.7z"/>
	<path class="s0" d="m137 105.2h29.7v-29.8h-29.7zm-16-29.8h-29.6v29.8h29.6zm-75.4 29.8h29.8v-29.8h-29.8zm-15.8-29.8h-29.8v29.8h29.8z"/>
	<path fill-rule="evenodd" class="s0" d="m45.6 60.5c0-16 6.4-31.4 17.8-42.8 11.3-11.3 26.7-17.7 42.7-17.7 16.1 0 31.5 6.4 42.8 17.7 11.4 11.4 17.7 26.8 17.7 42.8h-29.5c-0.1-4-0.9-8-2.5-11.6-1.6-3.7-3.9-7.1-6.8-9.9-2.9-2.8-6.3-5-10-6.5-3.7-1.5-7.7-2.2-11.7-2.2-4 0-8 0.8-11.6 2.3-3.7 1.5-7.1 3.7-10 6.5-2.8 2.8-5.1 6.1-6.7 9.8-1.6 3.7-2.4 7.6-2.5 11.6z"/>
</svg>